<svg width="233" height="271" viewBox="0 0 233 271" fill="none" xmlns="http://www.w3.org/2000/svg">
<path d="M122.771 235.953V269.482C122.771 270.105 123.27 270.604 123.893 270.479C131.746 269.856 139.349 268.485 146.578 266.117C146.952 265.992 147.326 265.618 147.326 265.12V182.854C147.326 182.355 146.952 181.857 146.454 181.857C139.1 180.984 131.496 180.486 123.893 180.237C123.27 180.237 122.771 180.735 122.771 181.234V210.899H109.559V181.234C109.559 180.61 109.06 180.112 108.437 180.237C100.709 180.486 93.2305 180.984 85.8764 181.732C85.3778 181.732 85.0039 182.231 85.0039 182.729V265.244C85.0039 265.743 85.2532 266.117 85.7518 266.241C92.9812 268.36 100.585 269.856 108.437 270.355C109.06 270.355 109.559 269.856 109.559 269.358V235.703H122.771V235.953Z" fill="#2B5E4A"/>
<path d="M78.0298 182.978C68.6815 184.349 59.5824 186.094 51.1065 188.463C50.8572 188.587 50.608 188.712 50.4833 189.086L39.8885 211.023H38.1435V193.822C38.1435 193.075 37.3956 192.576 36.7724 192.825C30.5401 195.069 24.6818 197.437 19.1974 200.179C18.0756 200.678 17.0785 201.301 16.0813 201.8C15.5827 202.049 15.3335 202.672 15.7074 203.171C23.8093 218.502 33.6563 231.839 45.1236 242.559C45.6222 243.057 46.4947 242.932 46.744 242.309L53.1008 229.471H54.7212V250.162C54.7212 250.536 54.8459 250.785 55.0952 251.034C62.0753 256.269 69.6786 260.507 77.7805 263.748C78.4038 263.997 79.1516 263.499 79.1516 262.751V183.975C79.2763 183.352 78.6531 182.854 78.0298 182.978Z" fill="#2B5E4A"/>
<path d="M206.908 199.057C204.415 197.437 195.939 192.701 190.704 190.831C190.206 190.706 189.707 190.831 189.458 191.329C187.588 195.193 179.86 211.023 179.86 211.023H178.115L177.991 188.338C177.991 187.839 177.617 187.465 177.243 187.341C170.013 185.596 162.41 184.1 154.682 182.978C154.059 182.854 153.436 183.352 153.436 183.975V262.252C153.436 263 154.183 263.499 154.931 263.25C163.033 259.884 170.637 255.522 177.617 250.286C177.866 250.037 177.991 249.788 177.991 249.414V235.952C182.478 235.578 187.214 237.323 189.956 239.941C195.316 234.581 200.925 228.224 205.537 221.743C205.911 221.369 205.786 220.746 205.412 220.372C203.792 219.001 201.798 217.505 199.803 216.383L207.407 200.429C207.656 199.93 207.407 199.431 206.908 199.057Z" fill="#2B5E4A"/>
<path d="M156.679 9.47301C157.302 8.97443 157.177 7.97727 156.43 7.60334C147.704 3.86399 138.356 1.24645 128.758 0C118.787 32.5323 118.662 71.1722 117.291 169.517C118.164 169.517 119.161 169.517 120.033 169.517C123.274 93.6083 124.271 31.7844 156.679 9.47301Z" fill="#1D2126"/>
<path d="M139.103 96.5994C151.069 60.4524 170.264 42.6281 198.808 41.3817C199.68 41.3817 200.054 40.2599 199.555 39.6367C192.575 31.4101 184.723 24.3053 176.247 18.3224C148.825 27.7954 136.734 51.4779 129.879 94.7297C126.763 114.922 124.395 140.1 123.023 169.641C123.896 169.641 124.893 169.641 125.766 169.766C127.261 146.083 132.87 115.545 139.103 96.5994Z" fill="#1D2126"/>
<path d="M145.084 125.018C167.146 82.1406 205.911 76.4069 227.35 97.5965C228.097 98.3444 229.344 97.5965 229.095 96.5994C225.605 82.8885 220.369 70.05 213.514 58.4581C164.279 44.8718 134.365 101.211 128.631 170.015C129.503 170.015 130.501 170.14 131.373 170.14C134.115 151.194 136.857 140.848 145.084 125.018Z" fill="#1D2126"/>
<path d="M231.342 120.033C212.77 97.9705 178.119 92.3615 154.312 122.65C145.711 133.494 137.36 149.449 134.119 170.265C135.116 170.265 135.989 170.389 136.986 170.389C141.972 149.574 154.935 138.605 167.15 134.99C195.32 126.39 223.49 146.956 225.982 170.888C226.107 171.885 227.727 171.76 227.977 170.763C230.594 159.42 232.09 147.455 232.09 134.99C231.965 129.88 231.716 124.894 231.342 120.033Z" fill="#1D2126"/>
<path d="M103.208 0.126038C93.6105 1.37249 84.2621 3.86538 75.537 7.72937C74.7891 8.10331 74.6645 9.10047 75.2877 9.59905C107.695 31.7858 108.693 93.6097 111.809 169.643C112.681 169.643 113.678 169.643 114.551 169.643C113.18 71.2983 113.18 32.6583 103.208 0.126038Z" fill="#1D2126"/>
<path d="M102.083 94.8535C95.3526 51.6017 83.1374 27.9192 55.7155 18.4462C47.2396 24.4291 39.387 31.5339 32.4069 39.7604C31.9083 40.3837 32.2823 41.3808 33.1548 41.5055C61.6984 42.6273 81.0184 60.4515 92.9843 96.5985C99.2166 115.42 104.701 146.083 106.321 169.765C107.194 169.765 108.191 169.64 109.063 169.64C107.568 140.224 105.324 115.046 102.083 94.8535Z" fill="#1D2126"/>
<path d="M18.572 58.4582C11.7165 69.9255 6.48146 82.7639 2.99141 96.5995C2.74212 97.5967 3.98857 98.3445 4.73644 97.5967C26.3 76.5317 64.9399 82.2654 87.0021 125.019C95.104 140.724 97.9708 151.069 100.713 170.015C101.586 170.015 102.583 169.891 103.455 169.891C97.7215 101.211 67.8067 44.8719 18.572 58.4582Z" fill="#1D2126"/>
<path d="M77.7784 122.65C53.9712 92.3615 19.1953 97.9705 0.747869 120.033C0.24929 124.894 0 129.88 0 134.99C0 147.33 1.37109 159.296 4.11328 170.763C4.36257 171.76 5.98295 171.885 6.1076 170.888C9.47301 147.33 34.7759 127.511 64.94 134.99C77.2798 137.982 89.9936 149.574 95.104 170.389C96.1012 170.265 96.9737 170.265 97.9709 170.265C94.7301 149.449 86.3789 133.494 77.7784 122.65Z" fill="#1D2126"/>
</svg>
