<?xml version="1.0" encoding="UTF-8" standalone="no"?>
<!-- Creator: CorelDRAW X6 -->

<svg
   xmlns:dc="http://purl.org/dc/elements/1.1/"
   xmlns:cc="http://creativecommons.org/ns#"
   xmlns:rdf="http://www.w3.org/1999/02/22-rdf-syntax-ns#"
   xmlns:svg="http://www.w3.org/2000/svg"
   xmlns="http://www.w3.org/2000/svg"
   xmlns:sodipodi="http://sodipodi.sourceforge.net/DTD/sodipodi-0.dtd"
   xmlns:inkscape="http://www.inkscape.org/namespaces/inkscape"
   xml:space="preserve"
   width="9.4539995cm"
   height="11.713cm"
   version="1.1"
   style="clip-rule:evenodd;fill-rule:evenodd;image-rendering:optimizeQuality;shape-rendering:geometricPrecision;text-rendering:geometricPrecision"
   viewBox="0 0 9453.9995 11713"
   id="svg63"
   sodipodi:docname="gerb_irkutskoj_oblasti-1.svg"
   inkscape:version="0.92.4 (5da689c313, 2019-01-14)"><metadata
   id="metadata67"><rdf:RDF><cc:Work
       rdf:about=""><dc:format>image/svg+xml</dc:format><dc:type
         rdf:resource="http://purl.org/dc/dcmitype/StillImage" /><dc:title></dc:title></cc:Work></rdf:RDF></metadata><sodipodi:namedview
   pagecolor="#ffffff"
   bordercolor="#666666"
   borderopacity="1"
   objecttolerance="10"
   gridtolerance="10"
   guidetolerance="10"
   inkscape:pageopacity="0"
   inkscape:pageshadow="2"
   inkscape:window-width="1920"
   inkscape:window-height="1017"
   id="namedview65"
   showgrid="false"
   fit-margin-top="0"
   fit-margin-left="0"
   fit-margin-right="0"
   fit-margin-bottom="0"
   inkscape:zoom="2.3786087"
   inkscape:cx="321.58944"
   inkscape:cy="167.87286"
   inkscape:window-x="1912"
   inkscape:window-y="-8"
   inkscape:window-maximized="1"
   inkscape:current-layer="svg63" />
 <defs
   id="defs4">
  <style
   type="text/css"
   id="style2">
   <![CDATA[
    .str1 {stroke:#2B2A29;stroke-width:7.62}
    .str0 {stroke:#FEFEFE;stroke-width:40.96}
    .fil3 {fill:none}
    .fil2 {fill:#E31E24}
    .fil1 {fill:#EBECEC}
    .fil0 {fill:#2B2A29}
   ]]>
  </style>
 </defs>
 <g
   id="Слой_x0020_1"
   transform="translate(-6314,-8598)">
  <metadata
   id="CorelCorpID_0Corel-Layer" />
  <g
   id="_675610384">
   <polygon
   class="fil0"
   points="15768,17827 15764,17919 15760,18011 15751,18104 15737,18191 15720,18279 15698,18367 15675,18445 15649,18529 15618,18607 15583,18686 15543,18755 15503,18829 15454,18898 15405,18963 15352,19023 15295,19083 15237,19138 15171,19194 15104,19245 15033,19291 14958,19332 14883,19374 14803,19411 14715,19443 14630,19471 14537,19499 14444,19522 14343,19535 14245,19554 14139,19563 14033,19568 13922,19572 12824,19572 12748,19572 12673,19577 12598,19577 12527,19586 12456,19591 12390,19600 12323,19614 12257,19623 12195,19637 12133,19651 12071,19669 12009,19688 11951,19706 11898,19725 11841,19748 11787,19771 11734,19794 11686,19822 11633,19845 11584,19873 11540,19900 11491,19928 11447,19960 11402,19993 11358,20025 11314,20057 11274,20090 11234,20127 11194,20164 11154,20196 11119,20233 11039,20311 10964,20233 10924,20196 10884,20164 10844,20127 10804,20090 10765,20057 10720,20025 10676,19993 10632,19960 10587,19928 10543,19900 10494,19873 10441,19845 10393,19822 10344,19794 10291,19771 10238,19748 10180,19725 10127,19706 10065,19688 10007,19669 9950,19651 9888,19637 9821,19623 9755,19614 9689,19600 9622,19591 9551,19586 9480,19577 9405,19577 9330,19572 9250,19572 8156,19572 8046,19568 7939,19563 7833,19554 7731,19535 7634,19522 7541,19499 7448,19471 7359,19443 7280,19411 7195,19374 7116,19332 7045,19291 6974,19245 6908,19194 6841,19138 6784,19083 6726,19023 6673,18963 6624,18898 6575,18829 6536,18755 6496,18686 6460,18607 6429,18529 6403,18445 6376,18367 6358,18279 6341,18191 6327,18104 6319,18011 6314,17919 6314,17827 6314,8598 15768,8598 "
   id="polygon7"
   style="fill:#2b2a29" />
   <path
   class="fil1"
   d="m 6367,8658 h 4672 4667 v 9168 c 0,988 -607,1686 -1785,1686 h -1098 c -846,0 -1386,305 -1785,716 -399,-411 -943,-716 -1785,-716 H 8155 c -1178,0 -1789,-697 -1789,-1686 V 8658 Z"
   id="path9"
   inkscape:connector-curvature="0"
   style="fill:#ebecec" />
   <g
   id="g59">
    <path
   class="fil0"
   d="m 7526,12565 c 132,-5 263,-7 388,20 2,-88 -40,-252 6,-263 236,-25 395,-73 464,-164 108,-143 393,-170 732,-171 187,-166 317,-116 393,97 281,-29 361,68 240,292 168,205 336,478 543,889 261,71 551,198 836,333 171,96 342,108 513,61 579,-160 1128,-222 1631,-131 267,48 384,-2 406,-94 278,-1133 373,-1119 508,-1507 119,-343 202,-460 395,-536 244,-96 450,-120 644,-98 -190,499 -296,991 -272,1491 20,416 -357,996 -611,1117 -182,86 -211,159 -142,258 110,158 146,385 147,712 1,642 265,850 648,1032 23,118 33,260 17,386 -187,145 -245,445 -305,772 -127,-86 -256,-197 -359,-346 -256,62 -444,143 -480,268 -55,-111 14,-241 4,-441 -122,-17 -245,-14 -367,64 -38,-119 43,-209 296,-257 90,-88 183,-153 283,-175 69,-15 133,-69 196,-145 -256,-27 -526,-103 -821,-264 -45,236 -219,322 -525,282 -108,-14 -126,32 -53,113 237,270 308,409 128,422 -346,25 -611,147 -765,373 -261,2 -459,33 -499,146 -35,-98 151,-298 -92,-305 -136,-4 -264,38 -392,175 5,-113 44,-226 101,-340 97,-197 1,-200 -196,-90 13,-146 85,-216 216,-212 89,-31 148,-121 266,-92 247,77 410,92 448,21 67,-124 -79,-277 -161,-375 -110,-131 -58,-257 55,-467 -182,78 -406,153 -626,192 -474,83 -886,108 -1187,10 -52,59 -96,94 -132,106 l -1854,93 c -159,136 -360,238 -558,223 l -128,129 c -39,-42 -40,-127 -8,-256 -89,15 -175,75 -256,200 -20,-157 11,-276 78,-370 -32,-89 -99,-86 -202,7 14,-292 207,-383 416,-365 442,39 761,-5 981,-47 597,-114 473,-223 290,-336 -285,15 -665,63 -986,131 -145,69 -288,107 -412,112 -95,35 -168,73 -206,111 l -2,-138 -54,29 -54,29 c -16,-153 46,-204 46,-340 -5,-109 54,-184 158,-257 129,-90 828,-107 1251,-164 l 311,-501 -317,-735 -462,-224 c -41,-97 -52,-264 -122,-290 l -188,130 108,-156 -275,103 207,-160 -285,53 227,-110 -221,-61 z m 765,70 c 146,-54 238,-42 349,-33 l -186,78 c 140,7 256,21 334,46 -53,22 -169,23 -254,35 l 305,110 -326,-15 211,173 c -149,-61 -297,-130 -441,-220 -16,-49 -4,-118 8,-173 z m 304,-390 c 25,3 40,43 34,88 -6,45 -32,80 -57,76 -25,-3 -40,-43 -34,-88 6,-45 32,-80 57,-76 z m 1180,1680 c 153,-74 282,-114 397,-106 l -73,106 c -102,6 -207,47 -314,102 l 97,-94 -108,-8 z m -26,194 c 115,-59 235,-106 360,-143 23,2 20,18 6,45 -135,35 -243,89 -356,151 -14,-16 -19,-27 -10,-53 z m 4,127 c 85,-67 170,-105 255,-123 19,21 11,42 -24,63 l -204,94 c -33,5 -40,-21 -26,-35 z m 45,121 106,-31 -53,53 -81,18 29,-41 z m 3268,-4 165,189 -2,69 -189,-216 26,-43 z m -77,74 218,266 -7,65 -228,-280 17,-50 z m -69,101 261,273 v 67 l -271,-290 z m -34,98 268,323 -14,55 -276,-331 22,-48 z"
   id="path11"
   inkscape:connector-curvature="0"
   style="fill:#2b2a29" />
    <g
   id="g17">
     <path
   class="fil2"
   d="m 7590,13392 c 78,-235 215,-440 542,-510 80,-17 123,67 162,49 26,-12 41,-53 77,-35 157,79 255,191 334,307 171,248 303,501 300,781 l 215,338 c 11,277 58,487 146,720 29,182 -14,233 -128,152 146,677 140,1167 -88,1383 -345,-258 -405,-904 -269,-1864 34,-240 -11,-432 -77,-584 16,113 -13,233 -62,357 100,195 63,492 -89,874 -4,-200 -35,-381 -83,-549 -76,-253 -61,-465 -17,-696 -219,-259 -291,-511 -192,-737 3,-172 -71,-180 -222,-23 l 1,307 c 100,251 141,460 84,594 -98,226 -142,350 -130,567 12,199 -41,342 -121,286 -77,-54 -95,-156 -61,-301 38,-328 31,-527 3,-668 -45,87 -57,286 -134,433 -76,143 -126,175 -164,90 -27,-102 -86,-183 -179,-242 -2,-69 -42,-116 -120,-141 186,-325 175,-594 273,-888 z"
   id="path13"
   inkscape:connector-curvature="0"
   style="fill:#e31e24" />
     <path
   class="fil2"
   d="m 7593,14646 c 29,68 67,99 107,62 8,92 -14,204 -98,259 -71,47 -113,-6 -87,-99 20,-70 52,-124 77,-222 z"
   id="path15"
   inkscape:connector-curvature="0"
   style="fill:#e31e24" />
    </g>
    <g
   id="g55">
     <line
   class="fil3 str0"
   x1="13958"
   y1="12968"
   x2="14225"
   y2="12818"
   id="line19"
   style="fill:none;stroke:#fefefe;stroke-width:40.95999908" />
     <path
   class="fil3 str0"
   d="m 13980,12818 c 126,-76 252,-137 378,-183"
   id="path21"
   inkscape:connector-curvature="0"
   style="fill:none;stroke:#fefefe;stroke-width:40.95999908" />
     <path
   class="fil3 str0"
   d="m 14064,12572 c 126,-76 252,-137 378,-183"
   id="path23"
   inkscape:connector-curvature="0"
   style="fill:none;stroke:#fefefe;stroke-width:40.95999908" />
     <path
   class="fil3 str0"
   d="m 14101,12341 c 126,-76 252,-137 378,-183"
   id="path25"
   inkscape:connector-curvature="0"
   style="fill:none;stroke:#fefefe;stroke-width:40.95999908" />
     <path
   class="fil3 str0"
   d="m 14222,12107 c 126,-76 252,-137 378,-183"
   id="path27"
   inkscape:connector-curvature="0"
   style="fill:none;stroke:#fefefe;stroke-width:40.95999908" />
     <path
   class="fil3 str0"
   d="m 14299,11931 c 126,-76 252,-137 378,-183"
   id="path29"
   inkscape:connector-curvature="0"
   style="fill:none;stroke:#fefefe;stroke-width:40.95999908" />
     <path
   class="fil3 str0"
   d="m 14332,11766 c 126,-76 230,-137 356,-183"
   id="path31"
   inkscape:connector-curvature="0"
   style="fill:none;stroke:#fefefe;stroke-width:40.95999908" />
     <path
   class="fil3 str0"
   d="m 14557,12144 c -61,-109 -143,-242 -249,-324"
   id="path33"
   inkscape:connector-curvature="0"
   style="fill:none;stroke:#fefefe;stroke-width:40.95999908" />
     <path
   class="fil3 str0"
   d="m 14627,12038 c -61,-109 -143,-228 -249,-309"
   id="path35"
   inkscape:connector-curvature="0"
   style="fill:none;stroke:#fefefe;stroke-width:40.95999908" />
     <path
   class="fil3 str0"
   d="m 14652,11902 c -61,-109 -132,-187 -238,-269"
   id="path37"
   inkscape:connector-curvature="0"
   style="fill:none;stroke:#fefefe;stroke-width:40.95999908" />
     <path
   class="fil3 str0"
   d="m 14704,11810 c -61,-109 -110,-169 -216,-251"
   id="path39"
   inkscape:connector-curvature="0"
   style="fill:none;stroke:#fefefe;stroke-width:40.95999908" />
     <path
   class="fil3 str0"
   d="m 14499,12203 c -61,-109 -110,-169 -216,-251"
   id="path41"
   inkscape:connector-curvature="0"
   style="fill:none;stroke:#fefefe;stroke-width:40.95999908" />
     <path
   class="fil3 str0"
   d="m 14447,12305 c -61,-109 -110,-169 -216,-251"
   id="path43"
   inkscape:connector-curvature="0"
   style="fill:none;stroke:#fefefe;stroke-width:40.95999908" />
     <path
   class="fil3 str0"
   d="m 14407,12419 c -61,-109 -110,-169 -216,-251"
   id="path45"
   inkscape:connector-curvature="0"
   style="fill:none;stroke:#fefefe;stroke-width:40.95999908" />
     <path
   class="fil3 str0"
   d="m 14389,12543 c -61,-109 -135,-209 -242,-291"
   id="path47"
   inkscape:connector-curvature="0"
   style="fill:none;stroke:#fefefe;stroke-width:40.95999908" />
     <path
   class="fil3 str0"
   d="m 14356,12661 c -77,-104 -127,-172 -220,-258"
   id="path49"
   inkscape:connector-curvature="0"
   style="fill:none;stroke:#fefefe;stroke-width:40.95999908" />
     <path
   class="fil3 str0"
   d="m 14301,12771 c -77,-104 -127,-172 -220,-258"
   id="path51"
   inkscape:connector-curvature="0"
   style="fill:none;stroke:#fefefe;stroke-width:40.95999908" />
     <path
   class="fil3 str0"
   d="m 14257,12866 c -77,-104 -149,-183 -242,-269"
   id="path53"
   inkscape:connector-curvature="0"
   style="fill:none;stroke:#fefefe;stroke-width:40.95999908" />
    </g>
    <ellipse
   class="fil2 str1"
   cx="8598"
   cy="12343"
   rx="111"
   ry="97"
   id="ellipse57"
   style="fill:#e31e24;stroke:#2b2a29;stroke-width:7.61999989" />
   </g>
  </g>
 </g>
</svg>