<svg width="64" height="83" viewBox="0 0 64 83" fill="none" xmlns="http://www.w3.org/2000/svg">
<path fill-rule="evenodd" clip-rule="evenodd" d="M32.4496 6.96864C18.3767 6.96864 6.96795 18.3759 6.96795 32.4475C6.96795 46.519 18.3767 57.9263 32.4496 57.9263C46.523 57.9263 57.9312 46.519 57.9312 32.4475C57.9312 18.3759 46.523 6.96864 32.4496 6.96864ZM32.4496 0.900391C49.8749 0.900391 64.0008 15.0245 64.0008 32.4489C64.0008 49.8719 49.8749 63.9969 32.4496 63.9969C15.0238 63.9969 0.898315 49.8719 0.898315 32.4489C0.898315 15.0245 15.0238 0.900391 32.4496 0.900391Z" fill="white"/>
<path fill-rule="evenodd" clip-rule="evenodd" d="M32.4494 7.76953C18.8176 7.76953 7.76709 18.8192 7.76709 32.4496C7.76709 46.0795 18.8176 57.1287 32.4494 57.1287C46.0808 57.1287 57.1313 46.0795 57.1313 32.4496C57.1313 18.8192 46.0808 7.76953 32.4494 7.76953ZM32.4513 11.3058C39.1151 11.3058 45.0584 14.3877 48.934 19.2045H15.9686C19.8441 14.3877 25.7879 11.3058 32.4513 11.3058ZM11.7699 28.0283H37.311L13.2112 41.23C11.9884 38.5556 11.3071 35.5817 11.3071 32.4487C11.3071 30.9326 11.4666 29.454 11.7699 28.0283ZM18.8799 48.6617L32.4513 41.4245L45.5548 49.0429C41.9526 51.8911 37.4008 53.591 32.4513 53.591C27.2855 53.591 22.5522 51.7385 18.8799 48.6617ZM51.4401 41.7596L41.7318 36.3966L53.43 29.7872C53.5392 30.6588 53.5959 31.5475 53.5959 32.4487C53.5959 35.79 52.8206 38.9507 51.4401 41.7596Z" fill="white"/>
<path fill-rule="evenodd" clip-rule="evenodd" d="M3.48216 72.2035C3.2779 72.3009 3.27525 72.309 2.97909 73.7241C2.94748 73.8751 2.87873 74.1951 2.82632 74.435C2.7739 74.6749 2.67625 75.1403 2.60931 75.4691C2.54234 75.7979 2.45297 76.2196 2.41065 76.4062C2.36837 76.5929 2.27133 77.0582 2.19506 77.4403C2.11877 77.8224 2.02198 78.2878 1.97991 78.4744C1.93787 78.661 1.83369 79.1627 1.74844 79.5893C1.66316 80.0158 1.55267 80.5466 1.50288 80.7688C1.45308 80.991 1.37679 81.3472 1.3333 81.5605C1.28981 81.7738 1.22555 82.0848 1.19047 82.2516C1.09279 82.7162 1.1395 82.8955 1.37719 82.9682C1.45074 82.9907 2.22178 82.9987 3.68808 82.9922C6.1579 82.9812 6.02652 82.9945 6.14897 82.7425C6.20391 82.6294 6.55439 81.1697 6.64226 80.688C6.66171 80.5814 6.73754 80.2396 6.81072 79.9286C6.88394 79.6176 7.00206 79.0795 7.07321 78.7329C7.14437 78.3863 7.24815 77.9137 7.30382 77.6827C7.35946 77.4516 7.436 77.1099 7.47389 76.9233C7.64223 76.0941 7.99161 74.6258 8.03845 74.5507C8.15903 74.3575 8.17688 74.3542 9.11355 74.3542H9.97147L10.0613 74.4598C10.1181 74.5265 10.1511 74.6008 10.1511 74.662C10.1511 74.7707 10.0027 75.496 9.89016 75.9377C9.84941 76.0976 9.77422 76.4394 9.72314 76.6971C9.60899 77.2728 9.54008 77.6016 9.39805 78.2482C9.33757 78.5237 9.25313 78.9163 9.21041 79.1207C9.16769 79.3251 9.07123 79.7686 8.99605 80.1063C8.92089 80.444 8.82395 80.8948 8.78064 81.1081C8.73731 81.3214 8.64474 81.7488 8.57491 82.058C8.45482 82.5895 8.45032 82.6272 8.49163 82.7527C8.57626 83.0097 8.49544 83.0007 10.6182 82.9909C12.4498 82.9825 12.4872 82.9811 12.5706 82.9157C12.6173 82.8791 12.6816 82.8124 12.7135 82.7676C12.7721 82.6852 13.006 81.6858 13.2118 80.6381C13.2696 80.3441 13.3658 79.8861 13.4257 79.6202C13.4856 79.3544 13.5688 78.9696 13.6107 78.7652C13.6526 78.5608 13.73 78.1828 13.7827 77.925C13.8355 77.6673 13.8981 77.3838 13.9221 77.2949C13.946 77.206 14.0148 76.8788 14.0749 76.5678C14.135 76.2568 14.238 75.7696 14.3038 75.4852C14.3696 75.2009 14.4403 74.8903 14.4609 74.7951C14.5064 74.584 14.6377 74.4167 14.7931 74.3713C14.9672 74.3205 15.8074 74.3294 15.9797 74.3838C16.1861 74.4491 16.3198 74.5691 16.4162 74.776C16.5286 75.0173 16.5251 75.2538 16.4001 75.8569C16.2492 76.5851 16.0773 77.4184 15.9071 78.2482C15.69 79.3061 15.6775 79.3656 15.5532 79.9286C15.4924 80.2041 15.3954 80.6694 15.3377 80.9627C15.28 81.2559 15.1892 81.6922 15.1359 81.9321C14.9775 82.6455 14.9816 82.7949 15.163 82.9242C15.2389 82.9784 15.3743 82.9831 17.1219 82.9922C18.1544 82.9975 19.0615 82.9925 19.1377 82.9809C19.2439 82.9647 19.3023 82.931 19.3885 82.8359C19.5272 82.6827 19.5352 82.6485 20.1705 79.4762C20.2293 79.1829 20.3458 78.6303 20.4294 78.2482C20.5131 77.8661 20.6455 77.2262 20.7236 76.8263C20.8018 76.4264 20.8928 75.9861 20.9259 75.8478C21.0126 75.4859 21.0762 75.0072 21.0764 74.7164C21.0774 73.4 20.1011 72.3937 18.626 72.1906C18.3073 72.1467 17.3719 72.1407 10.9372 72.1413C3.80226 72.142 3.60779 72.1437 3.48216 72.2035ZM23.2094 72.2078C23.1172 72.2558 23.0627 72.3136 23.019 72.4098C22.9659 72.5267 22.8032 73.275 22.7124 73.8199C22.6721 74.0618 22.7189 74.2066 22.8616 74.2814C22.9623 74.3342 23.198 74.338 26.4471 74.3382C28.7787 74.3384 29.9631 74.3496 30.041 74.3723C30.3347 74.4579 30.4544 74.7035 30.4232 75.1557C30.3802 75.7782 30.1002 76.2518 29.6398 76.4808L29.4324 76.584L28.5245 76.5945C27.9247 76.6015 27.5779 76.593 27.5028 76.5695C27.2752 76.4984 27.2169 76.3133 27.3088 75.9538C27.3625 75.7439 27.3684 75.4911 27.3217 75.3996C27.2423 75.2438 27.2283 75.2429 24.8882 75.2429C22.738 75.2429 22.6939 75.2441 22.5655 75.3095C22.4704 75.3578 22.4171 75.4137 22.3711 75.5136C22.3362 75.5892 22.3077 75.6696 22.3077 75.6922C22.3077 75.7149 22.2514 75.9757 22.1826 76.2718C22.1138 76.5679 22.0096 77.0551 21.9511 77.3545C21.8925 77.6539 21.7826 78.1919 21.7068 78.5502C21.631 78.9084 21.5395 79.3469 21.5034 79.5246C21.4674 79.7024 21.371 80.1532 21.2892 80.5264C21.2075 80.8997 21.0992 81.4159 21.0486 81.6736C20.9981 81.9313 20.9348 82.2412 20.9079 82.3621C20.8797 82.4892 20.8675 82.6291 20.879 82.6935C20.9026 82.8261 21.0366 82.9557 21.1775 82.9824C21.2321 82.9928 22.2555 82.997 23.4518 82.9918C25.5936 82.9825 25.6283 82.9813 25.712 82.9157C25.847 82.8099 25.9046 82.7065 25.9539 82.4815C25.9792 82.366 26.0622 81.9879 26.1384 81.6413C26.2146 81.2947 26.325 80.7712 26.3838 80.4779C26.6586 79.1071 26.7128 78.9321 26.8996 78.8135C26.9978 78.7511 27.0751 78.7485 29.3246 78.7306C31.8376 78.7106 32.0402 78.6984 32.5596 78.5364C32.9737 78.4072 33.2046 78.2939 33.5807 78.0352C34.183 77.6208 34.5884 77.1062 34.7655 76.5311C34.8603 76.2232 34.9893 75.632 35.049 75.2313C35.0672 75.1095 35.1023 74.9086 35.1271 74.7849C35.2171 74.3354 35.1767 73.8697 35.0167 73.5131C34.6857 72.7755 34.0095 72.3245 33.0345 72.191C32.7151 72.1473 32.0492 72.1406 28.0026 72.1407C23.3419 72.1407 23.3386 72.1407 23.2094 72.2078ZM36.8029 72.2133C36.6096 72.3164 36.5403 72.4785 36.4463 73.0483C36.3378 73.7061 36.2706 74.1006 36.1439 74.8228C36.0831 75.1694 36.0058 75.6129 35.9722 75.8084C35.7403 77.156 35.8208 77.6288 36.3823 78.2185C36.5868 78.4331 36.6813 78.5042 36.939 78.637C37.1098 78.7249 37.3742 78.8367 37.5265 78.8853L37.8035 78.9738L40.0348 78.9907C41.7668 79.0038 42.2815 79.0168 42.335 79.049C42.5067 79.152 42.5377 79.3993 42.4219 79.7436C42.2827 80.158 42.066 80.4247 41.7404 80.5824L41.589 80.6557L38.5059 80.6718C35.4578 80.6878 35.4218 80.6887 35.3359 80.7543C35.1886 80.8667 35.1213 81.0717 34.9703 81.8669C34.8114 82.7036 34.8111 82.7934 34.9666 82.9146L35.0535 82.9824L39.3676 82.9912L43.6817 83L44.2372 82.9184C44.901 82.821 45.2492 82.7217 45.6197 82.5244C46.2257 82.2015 46.6249 81.824 46.8342 81.3758C47.0119 80.995 47.0661 80.7666 47.4839 78.636C47.6006 78.0406 47.7941 77.059 47.9139 76.4547C48.0337 75.8504 48.2073 74.9561 48.2999 74.4673C48.3923 73.9786 48.5094 73.3872 48.5601 73.1533C48.6107 72.9194 48.6521 72.6414 48.6521 72.5356C48.6521 72.3718 48.6403 72.3309 48.5724 72.2597C48.5235 72.2083 48.4434 72.1686 48.3647 72.1567C48.2943 72.146 47.3012 72.1417 46.1578 72.1471C44.2329 72.1561 44.0729 72.161 43.9962 72.2138C43.9507 72.2451 43.8911 72.3066 43.8638 72.3503C43.8069 72.4415 43.6787 72.9854 43.559 73.6433C43.5137 73.8921 43.4286 74.3429 43.3697 74.6451C43.3109 74.9472 43.2151 75.4489 43.1568 75.7599C42.9501 76.8629 42.9228 76.9489 42.7312 77.099C42.6506 77.1622 42.6062 77.1656 41.8714 77.1653C41.2119 77.1649 41.0805 77.1568 40.9888 77.111C40.7111 76.9719 40.5183 76.7368 40.4838 76.4952C40.4625 76.3457 40.5086 76.0744 40.8935 74.0862C41.0115 73.4766 41.1247 72.9249 41.1451 72.86C41.2021 72.6786 41.1957 72.4234 41.1316 72.3206C41.0182 72.1389 41.0398 72.1406 38.9035 72.1406H36.9394L36.8029 72.2133ZM50.5185 72.1738C50.4113 72.2076 50.322 72.2891 50.2645 72.4059C50.2149 72.5067 50.1784 72.6651 50.0092 73.5141C49.942 73.8517 49.8437 74.3243 49.7909 74.5643C49.7381 74.8042 49.6465 75.2477 49.5874 75.5499C49.5283 75.852 49.4463 76.2391 49.4051 76.4099C49.3639 76.5809 49.2889 76.9371 49.2385 77.2017C49.1881 77.4662 49.1191 77.8136 49.0854 77.9735C48.8635 79.0233 48.8034 79.3118 48.7291 79.6862C48.6832 79.9173 48.5991 80.3172 48.5422 80.5749C48.3574 81.412 48.1574 82.4617 48.1533 82.6162C48.1482 82.8082 48.2168 82.9206 48.3673 82.9665C48.4494 82.9916 50.0808 82.9987 54.0071 82.9913C60.0812 82.9798 59.7575 82.9902 60.4339 82.7847C61.3148 82.5171 62.1507 81.8162 62.5106 81.0435C62.6644 80.7132 62.7302 80.4773 62.8846 79.7024C62.9608 79.3203 63.093 78.6659 63.1785 78.2482C63.264 77.8305 63.3607 77.3506 63.3935 77.1818C63.4262 77.0129 63.5238 76.5331 63.6104 76.1154C63.8296 75.0573 63.8842 74.7185 63.8854 74.4091C63.8884 73.5544 63.4573 72.8439 62.7061 72.4655C62.0234 72.1217 62.4059 72.1401 56.0403 72.1434C53.0517 72.1449 50.5668 72.1586 50.5185 72.1738ZM58.6764 74.3755C58.8754 74.4281 59.0349 74.6027 59.0852 74.8228C59.1383 75.055 59.1099 75.4756 59.0145 75.873C58.9717 76.0508 58.8794 76.4797 58.8092 76.8263C58.739 77.1729 58.648 77.6092 58.607 77.7958C58.566 77.9824 58.483 78.375 58.4224 78.6683C58.203 79.7308 58.1254 79.9943 57.9663 80.2157C57.8438 80.3861 57.5921 80.5669 57.367 80.6462C57.1661 80.717 57.1256 80.7188 55.469 80.7297C54.3048 80.7374 53.7408 80.7299 53.6626 80.7056C53.5159 80.6601 53.4224 80.535 53.4224 80.3843C53.4224 80.3198 53.4643 80.0636 53.5154 79.8151C53.5666 79.5665 53.6297 79.254 53.6557 79.1207C53.6817 78.9874 53.7576 78.6384 53.8242 78.3451C53.8909 78.0519 54.0154 77.4702 54.101 77.0525C54.1866 76.6349 54.2776 76.2069 54.3034 76.1014C54.3292 75.996 54.4034 75.6454 54.4682 75.3223C54.6074 74.6294 54.6658 74.4876 54.8476 74.401C54.9696 74.3428 55.0734 74.3394 56.7557 74.3388C58.0042 74.3383 58.577 74.3492 58.6764 74.3755Z" fill="white"/>
</svg>
