<svg width="250" height="30" viewBox="0 0 250 30" fill="none" xmlns="http://www.w3.org/2000/svg">
<g clip-path="url(#clip0)">
<path d="M17.646 13.5519C18.6864 12.3868 19.3707 10.9419 19.6161 9.39195C19.8615 7.84197 19.6575 6.25331 19.0288 4.81808C18.4001 3.38285 17.3736 2.16254 16.0734 1.30473C14.7733 0.446923 13.2552 -0.0116416 11.7027 -0.0155029H0V30H11.6414C13.5303 29.9987 15.3734 29.4123 16.9228 28.3199C18.4721 27.2275 19.6533 25.6814 20.3074 23.8897C20.9615 22.098 21.057 20.1467 20.5812 18.2985C20.1054 16.4502 19.081 14.7937 17.646 13.5519ZM5.32289 5.40525H11.5649C11.9519 5.38496 12.3391 5.44454 12.7026 5.58034C13.0662 5.71615 13.3987 5.92535 13.6798 6.19521C13.9609 6.46506 14.1847 6.78993 14.3376 7.15003C14.4906 7.51014 14.5695 7.89795 14.5695 8.28986C14.5695 8.68178 14.4906 9.06959 14.3376 9.4297C14.1847 9.7898 13.9609 10.1147 13.6798 10.3845C13.3987 10.6544 13.0662 10.8636 12.7026 10.9994C12.3391 11.1352 11.9519 11.1948 11.5649 11.1745H5.32289V5.40525ZM11.6185 24.6412H5.32289V16.5333H11.6185C12.6788 16.5333 13.6957 16.9592 14.4454 17.7173C15.1952 18.4753 15.6164 19.5035 15.6164 20.5756C15.6164 21.6477 15.1952 22.6759 14.4454 23.434C13.6957 24.1921 12.6788 24.6179 11.6185 24.6179V24.6412ZM29.5172 16.5565H39.3435V11.1358H29.5172V5.40525H41.7713V-0.0155029H24.156V30H41.7713V24.6257H29.5172V16.5565ZM109.146 -0.0155029L96.6087 19.9638V-0.0155029H91.2475V30H96.6087L109.146 10.0516V30H114.461V-0.0155029H109.146ZM44.3447 10.1987V19.8012C44.3447 22.5061 45.4074 25.1002 47.299 27.0128C49.1907 28.9255 51.7562 30 54.4314 30H63.622V24.6257H54.6688C54.0114 24.6257 53.3605 24.4946 52.7532 24.24C52.1459 23.9854 51.5942 23.6122 51.1297 23.1419C50.6652 22.6715 50.297 22.1131 50.0461 21.4987C49.7952 20.8843 49.6666 20.2259 49.6676 19.5612V10.4466C49.6737 9.10739 50.2041 7.82516 51.1428 6.88039C52.0815 5.93563 53.352 5.40524 54.6765 5.40525H63.6144V-0.0155029H54.4237C53.0985 -0.014487 51.7864 0.250573 50.5625 0.764533C49.3387 1.27849 48.2269 2.03127 47.2909 2.97986C46.3549 3.92844 45.6129 5.05423 45.1074 6.29288C44.6019 7.53153 44.3427 8.85878 44.3447 10.1987ZM66.8464 5.40525H74.7656V30H80.0885V5.40525H88.0078V-0.0155029H66.8464V5.40525ZM119.761 -0.0155029V30H250.008V-0.0155029H119.761ZM140.249 24.5405H137.185V10.3149L128.293 24.556H125.23V5.40525H128.293V19.6618L137.193 5.40525H140.256L140.249 24.5405ZM151.147 17.7955C150.512 17.7955 148.275 17.7955 147.486 17.7181V24.5328H144.323V5.40525H151.408C156.149 5.40525 158.124 7.05471 158.124 11.5539C158.124 16.0532 156.041 17.7955 151.147 17.7955ZM172.538 24.556L166.848 16.0377L164.213 17.0212V24.5792H161.05V5.40525H164.213V14.0939L167.108 13.0563L172.47 5.38977H176.13L169.437 14.6283L176.291 24.556H172.538ZM190.92 20.684C190.108 23.859 188.499 24.8658 185.206 24.8658C183.841 24.8635 182.48 24.6945 181.155 24.3624L181.415 21.4584C182.563 21.7902 183.752 21.9519 184.946 21.9385C186.998 21.9385 187.818 21.381 188.185 19.809L188.66 17.8652C187.661 18.1321 186.631 18.2649 185.597 18.2602C182.748 18.2602 181.591 17.4393 180.772 14.7522L177.9 5.40525H181.27L183.567 13.6603C183.935 15.0387 184.754 15.4646 186.255 15.4646C187.288 15.4743 188.318 15.3494 189.319 15.0929L191.617 5.40525H194.856L190.92 20.684ZM212.25 8.40989H206.122V24.556H202.944V8.39441H196.779V5.40525H212.242L212.25 8.40989ZM222.091 24.8658C216.27 24.8658 214.057 22.1012 214.057 14.9845C214.057 8.22404 216.087 5.11098 222.145 5.11098C223.866 5.08128 225.577 5.39713 227.177 6.04025L226.648 8.7274C225.288 8.27922 223.867 8.04673 222.436 8.03819C218.461 8.03819 217.274 9.98192 217.274 15.0077C217.274 20.2271 218.377 21.9773 222.405 21.9773C223.85 21.9639 225.285 21.7475 226.671 21.3345L227.2 24.0294C225.559 24.6189 223.824 24.8972 222.084 24.8503L222.091 24.8658ZM241.522 24.5715L235.831 16.0532L233.219 17.0212V24.5792H230.056V5.40525H233.219V14.0939L236.107 13.0563L241.468 5.38977H245.129L238.405 14.6283L245.297 24.556L241.522 24.5715ZM151.285 8.30923H147.494V14.8296C148.306 14.8838 150.305 14.9148 150.994 14.9148C153.966 14.9148 155.023 14.1404 155.023 11.5539C155.023 8.96746 154.042 8.31697 151.277 8.31697L151.285 8.30923Z" fill="white"/>
</g>
<defs>
<clipPath id="clip0">
<rect width="250" height="30" fill="white"/>
</clipPath>
</defs>
</svg>
